<svg width="400" height="400" viewBox="0 0 400 400" fill="none" xmlns="http://www.w3.org/2000/svg">
<path d="M0 200C0 89.5431 89.5431 0 200 0C310.457 0 400 89.5431 400 200C400 310.457 310.457 400 200 400C89.5431 400 0 310.457 0 200Z" fill="black"/>
<path d="M129.471 284.063L194.384 321.505L129.441 359L129.471 284.063Z" fill="white"/>
<path d="M196.473 318.734L131.56 281.292L196.503 243.797L196.473 318.734Z" fill="white"/>
<path d="M199.896 318.734L199.866 243.797L264.808 281.292L199.896 318.734Z" fill="white"/>
<path d="M266.898 278.305L201.985 240.863L266.928 203.368L266.898 278.305Z" fill="white"/>
<path d="M196.473 237.876L131.56 200.434L196.503 162.939L196.473 237.876Z" fill="white"/>
<path d="M129.471 196.795L129.441 121.858L194.384 159.353L129.471 196.795Z" fill="white"/>
<path d="M196.473 156.04L131.56 118.598L196.503 81.103L196.473 156.04Z" fill="white"/>
<path d="M199.896 156.04L199.866 81.103L264.808 118.598L199.896 156.04Z" fill="white"/>
<path d="M266.898 115.937L201.985 78.4947L266.928 41L266.898 115.937Z" fill="white"/>
<path d="M199.896 237.876L199.866 162.939L264.808 200.434L199.896 237.876Z" fill="white"/>
</svg>
